<svg width="256" height="256" viewBox="0 0 256 256" fill="none" xmlns="http://www.w3.org/2000/svg">
<g clip-path="url(#clip0_1606_2019)">
<path d="M0 131.22V124.893C0.907609 96.6573 9.83293 71.5851 26.776 49.6825C42.7903 28.9781 65.2544 13.4209 90.2965 5.75002C127.141 -5.53643 167.202 0.360063 199.125 21.7985C231.009 43.2097 251.785 77.882 255.285 116.418C257.87 144.845 250.895 173.309 235.439 197.256C220.606 220.232 198.679 238.009 173.157 247.655C137.513 261.128 97.3554 257.949 64.4221 239.047C50.8774 231.273 39.1749 221.421 29.3119 209.488C11.0149 187.349 0.850318 160.16 0 131.22Z" fill="#E5B76F"/>
<path d="M130.602 230.257C130.575 230.488 130.47 229.084 130.289 226.047C128.639 198.442 126.655 165.375 124.33 126.844C124.297 126.277 124.246 125.883 124.177 125.664C124.158 125.607 124.08 125.61 124.065 125.667C123.356 128.452 122.186 131.085 120.561 133.563C116.295 140.069 110.116 145.392 103.359 149.002C92.754 154.665 81.4074 157.106 69.316 156.33C63.4602 155.954 57.1703 154.455 52.0352 151.986C48.842 150.455 45.9986 147.861 43.318 145.013C38.6653 140.066 34.4771 134.012 32.2096 127.448C31.908 126.577 31.6969 125.549 31.5763 124.369C31.314 121.803 31.1512 119.249 31.0848 116.704C30.8828 108.912 33.2137 102.024 38.0804 96.0424C38.1377 95.9726 38.2311 95.9423 38.3186 95.9665L41.3791 96.7946C41.4485 96.8128 41.4756 96.8947 41.4334 96.9523C37.6763 102.03 36.4069 107.471 36.8984 113.968C37.7004 124.545 42.4043 134.321 50.3195 141.313C55.0385 145.477 60.5776 147.958 66.9429 148.756C70.7875 149.238 73.5525 149.523 75.235 149.617C78.2654 149.781 81.4496 149.49 84.7936 148.744C91.8675 147.167 98.2057 143.842 103.805 138.768C109.646 133.475 115.016 125.097 113.825 116.792C113.204 112.464 111.12 109.121 107.571 106.768C105.192 105.19 102.587 103.592 99.7526 101.975C91.5268 97.2769 86.5545 94.5409 79.8002 89.9609C77.4724 88.3806 75.8773 87.231 75.0179 86.5061C71.7644 83.7641 68.9903 80.1334 67.9078 76.0719C66.6896 71.4979 68.1189 67.1423 70.5131 62.9019C76.5377 52.2191 87.1214 46.0374 99.2611 45.6249C104.848 45.4338 112.034 45.9828 116.653 49.5711C121.454 53.3049 118.071 58.9618 115.625 62.8473C115.161 63.5844 114.16 65.0251 113.246 65.1404C112.981 65.1737 112.746 64.9645 112.749 64.6945C112.764 63.5237 112.733 62.4864 112.661 61.5825C112.23 56.1015 107.825 53.4809 102.967 52.1038C96.4086 50.2505 88.9457 50.3597 82.9603 53.5992C78.3378 56.1015 74.9516 60.7756 74.5144 66.0807C74.038 71.9013 77.1166 75.3804 81.3199 78.8716C84.1332 81.2101 86.5425 82.9572 88.5537 84.119C91.8253 86.0086 98.9655 90.0943 109.977 96.3821C112.031 97.5559 114.081 99.0422 116.126 100.841C119.343 103.674 121.677 107.168 123.281 111.035C123.29 111.06 123.314 111.072 123.338 111.066C123.362 111.06 123.378 111.035 123.378 111.011C123.236 108.503 123.07 105.673 122.874 102.521C122.793 101.208 122.756 100.753 122.202 99.6337C119.334 93.8433 119.271 87.1734 121.406 81.0312C121.499 80.7643 121.505 79.8907 121.421 78.4136C121.188 74.3582 120.416 61.5157 119.102 39.8862C118.918 36.8773 118.948 34.8663 119.189 33.8501C120.236 29.4642 123.754 26.0155 128.178 25.0691C134.423 23.7284 140.8 27.8172 142.054 34.2293C142.241 35.1817 142.277 36.58 142.163 38.4242C141.72 45.628 141.307 52.4738 140.918 58.9648C140.915 59.0407 140.993 59.0922 141.059 59.0558C151.948 53.1624 163.56 51.0634 175.892 52.7529C182.119 53.6082 188.011 55.2674 193.565 57.7303C200.907 60.988 208.994 67.1332 211.229 75.3531C212.959 81.7167 210.722 87.7011 206.13 92.172C202.882 95.3326 199.095 97.7561 194.765 99.4426C194.62 99.5002 194.602 99.6973 194.732 99.7792C196.821 101.09 198.712 102.597 200.404 104.299C203.033 106.947 204.423 110.062 204.058 113.89C203.6 118.658 200.865 123.311 197.313 126.602C192.844 130.742 187.432 133.15 181.603 134.758C178.295 135.671 175.102 136.062 172.024 135.938C169.726 135.844 167.25 135.337 164.597 134.418C161.235 133.253 157.833 131.998 154.399 130.654C151.158 129.386 148.145 128.337 144.663 128.334C144.557 128.334 144.195 128.267 143.577 128.136C143.481 128.115 143.414 128.03 143.414 127.933C143.411 127.536 143.586 127.208 143.933 126.956C145.239 125.998 147.494 124.333 150.699 121.964C150.799 121.888 150.931 121.873 151.046 121.921C151.948 122.301 152.813 122.564 153.645 122.713C158.554 123.596 162.347 118.36 164.22 114.539C165.357 112.212 166.524 109.546 167.721 106.537C169.702 101.554 171.638 96.646 173.525 91.8202C175.144 87.6769 176.721 83.9794 178.25 80.7248C179.33 78.4227 180.524 76.2661 182.052 74.3673C184 71.9559 186.322 70.227 189.193 68.125C190.613 67.0846 191.979 66.1231 193.291 65.2374C193.381 65.1768 193.387 65.0433 193.3 64.9766C191.198 63.3356 188.816 62.0162 186.156 61.0122C171.993 55.6738 154.833 54.318 140.987 61.5491C140.845 61.6249 140.752 61.7675 140.743 61.9252L138.177 104.681C138.165 104.842 138.264 104.993 138.415 105.051C141.946 106.389 145.549 106.522 149.231 105.451C154.64 103.874 158.835 99.5881 159.311 93.8342C159.597 90.3885 158.195 86.7366 155.005 85.0714C153.929 84.5102 152.888 84.398 151.89 84.7347C151.48 84.8712 151.146 84.8469 150.844 84.6134C150.618 84.4405 150.582 84.0886 150.757 83.8005C150.965 83.4577 151.281 83.209 151.703 83.0543C154.423 82.0412 157.674 81.377 160.562 81.8259C163.804 82.3324 165.342 85.3383 165.55 88.4352C166.421 101.36 149.032 110.559 138.017 109.919C137.948 109.913 137.887 109.968 137.881 110.037C137.251 119.753 134.914 158.574 130.877 226.502C130.765 228.416 130.672 229.669 130.602 230.257Z" fill="white"/>
<path d="M130.958 31.5935C132.52 31.5904 133.548 32.6399 134.016 34.0716C134.145 34.4719 134.127 35.212 133.955 36.2949C133.856 36.9167 132.894 43.623 131.07 56.4109C131.051 56.5444 131.018 56.6111 130.976 56.6111C130.931 56.6111 130.901 56.5444 130.88 56.4109C129.04 43.6261 128.069 36.9227 127.97 36.2979C127.798 35.2181 127.777 34.475 127.907 34.0776C128.371 32.6429 129.399 31.5935 130.958 31.5935Z" fill="#E5B76F"/>
<path d="M179.405 98.0808C179.36 98.1112 179.305 98.0657 179.324 98.0141C180.686 94.4986 181.908 91.4351 182.984 88.8236C186.117 81.2285 188.864 74.8042 193.396 68.8956C194.439 67.5368 195.811 66.2628 197.521 67.6611C199.273 69.0958 200.874 70.9612 202.321 73.2604C205.524 78.347 206.096 84.0494 203.6 89.4909C201.589 93.8677 197.464 96.4217 192.724 96.7159C189.693 96.9039 187.184 96.3883 183.819 95.6482C183.479 95.5754 183.132 95.6543 182.779 95.8878C181.769 96.5521 180.644 97.2831 179.405 98.0808Z" fill="#E5B76F"/>
<path d="M158.765 124.075C158.66 124.03 158.666 123.878 158.774 123.842C162.691 122.461 166.005 120.32 168.716 117.411C172.78 113.053 175.533 106.956 178.018 101.19C178.066 101.075 178.19 101.008 178.313 101.035C180.638 101.53 182.3 101.909 183.301 102.176C190.945 104.199 199.188 110.217 196.595 119.371C195.495 123.244 193.26 126.326 189.892 128.616C186.319 131.045 181.832 131.103 177.487 130.302C171.288 129.159 164.922 126.653 158.765 124.075Z" fill="#E5B76F"/>
</g>
<defs>
<clipPath id="clip0_1606_2019">
<rect width="256" height="256" fill="white"/>
</clipPath>
</defs>
</svg>
